<svg xmlns="http://www.w3.org/2000/svg" viewBox="0 0 42.1 38.7"><defs><style>.cls-1{fill:none;stroke:#fff;stroke-linecap:round;stroke-linejoin:round;stroke-width:1.83px;}</style></defs><g id="Layer_2" data-name="Layer 2"><g id="Layer_1-2" data-name="Layer 1"><path class="cls-1" d="M21.05,11.06,5.13,3.32V9l13.94,2.83a1.81,1.81,0,0,0,2,1.5Z"/><path class="cls-1" d="M21.05,11.06,37,3.32V9L23,11.79a1.81,1.81,0,0,1-2,1.5Z"/><polygon class="cls-1" points="23.03 11.79 23.03 35.93 41.19 32.31 41.19 8.18 23.03 11.79"/><polygon class="cls-1" points="19.07 11.79 19.07 35.93 0.91 32.31 0.91 8.18 19.07 11.79"/><path class="cls-1" d="M21.05,13.29a2,2,0,0,1-1.92-1.5h-.06v24a2,2,0,1,0,4,0v-24H23A2,2,0,0,1,21.05,13.29Z"/><line class="cls-1" x1="26.27" y1="15.9" x2="37.95" y2="13.57"/><line class="cls-1" x1="26.27" y1="19.47" x2="37.95" y2="17.15"/><polygon class="cls-1" points="21.05 11.06 10.31 0.91 10.31 5.84 21.05 11.06"/><polygon class="cls-1" points="21.05 11.06 31.8 0.91 31.8 5.84 21.05 11.06"/></g></g></svg>